<svg id="SvgjsSvg1119" width="288" height="288" xmlns="http://www.w3.org/2000/svg" version="1.1" xmlns:xlink="http://www.w3.org/1999/xlink" xmlns:svgjs="http://svgjs.com/svgjs"><rect id="SvgjsRect1127" width="288" height="288" rx="21" ry="21" transform="matrix(0.9999999999999999,0,0,0.9999999999999999,2.842170943040401e-14,2.842170943040401e-14)" fill="#87ddfd"></rect><defs id="SvgjsDefs1120"></defs><g id="SvgjsG1121" transform="matrix(0.7,0,0,0.7,43.2,43.200164794921875)"><svg xmlns="http://www.w3.org/2000/svg" viewBox="0 0 32 32" width="288" height="288"><g transform="translate(0 -1020.362)" fill="#36596b" class="color000 svgShape"><circle cx="16" cy="1036.362" r="16" fill="#43b0e6" fill-rule="evenodd" class="colorffcc0f svgShape"></circle><path fill="#51c3fc" style="line-height:normal;text-indent:0;text-align:start;text-decoration-line:none;text-decoration-style:solid;text-decoration-color:#000;text-transform:none;block-progression:tb;isolation:auto;mix-blend-mode:normal" d="M16.887 31.969a16 16 0 0 0 .244-.01 16 16 0 0 0 1.588-.191 16 16 0 0 0 1.56-.352 16 16 0 0 0 1.518-.504 16 16 0 0 0 1.46-.652 16 16 0 0 0 1.388-.797 16 16 0 0 0 1.3-.93 16 16 0 0 0 1.201-1.054 16 16 0 0 0 1.092-1.172 16 16 0 0 0 .967-1.272 16 16 0 0 0 .836-1.365 16 16 0 0 0 .695-1.44 16 16 0 0 0 .55-1.501 16 16 0 0 0 .396-1.551 16 16 0 0 0 .238-1.58 16 16 0 0 0 .037-.725l-8.424-8.424a.296.296 0 0 0-.209-.086h-4.527v.592l-.592-.592h-4.338v.592l-.592-.592h-4.6c-.227 0-.294.164-.294.295v4.6l.59.59h-.59v4.304l.588.588H8.38V23.342a.29.29 0 0 0 .084.199c.002.002 0 .006.002.008l8.42 8.42z" color="#000" font-family="sans-serif" font-weight="400" transform="translate(0 1020.362)" class="colorffa720 svgShape"></path><path fill="#f0f0f0" style="line-height:normal;text-indent:0;text-align:start;text-decoration-line:none;text-decoration-style:solid;text-decoration-color:#000;text-transform:none;block-progression:tb;isolation:auto;mix-blend-mode:normal" d="M8.676 1028.725c-.228 0-.295.165-.295.296v4.598h4.895v-4.894h-4.6zm5.19 0v4.894h4.34v-4.894h-4.34zm4.93 0v4.894h4.824v-4.598a.296.296 0 0 0-.296-.296h-4.528zm-7.672 1.467c.39 0 .568.248.568.638v1.277c0 .425-.178.638-.568.638-.391 0-.603-.213-.603-.638v-.036h.39v.07c0 .178.07.249.177.249.142 0 .214-.07.214-.319v-.426c-.037.142-.178.214-.356.214-.283 0-.425-.213-.425-.568v-.46c0-.39.213-.64.603-.64zm9.859.035h.248v2.483h-.39v-1.88h-.283v-.284c.283 0 .355-.142.425-.32zm-9.86.32c-.141 0-.212.07-.212.248v.46c0 .177.07.248.213.248.106 0 .178-.07.178-.248v-.46c0-.178-.072-.249-.178-.249zm-2.742 3.664v4.304h4.895v-4.304H8.38zm5.486 0v4.304h4.338v-4.304h-4.338zm4.93 0v4.304h4.823v-4.304h-4.824zm-7.673.91c.354 0 .568.213.568.603 0 .639-.462.746-.462 1.207v.14h-.319c-.036-.035-.035-.105-.035-.14 0-.568.426-.604.426-1.243 0-.177-.072-.212-.214-.212-.106 0-.177.035-.177.212v.284h-.354v-.248c0-.39.177-.602.567-.602zm4.47 0h1.029v.355h-.676l-.036.568a.375.375 0 0 1 .32-.178c.283 0 .46.212.46.567v.568c0 .39-.212.603-.602.603s-.568-.213-.568-.603v-.212h.357v.212c0 .177.07.248.212.248.106 0 .213-.07.213-.248v-.532c0-.178-.106-.248-.213-.248-.142 0-.212.07-.212.248v.072h-.356l.072-1.42zm-4.718 2.128h.39v.355h-.39v-.355zm-2.495 1.857v4.598c0 .148.111.273.258.292h4.637v-4.894H8.38zm5.486 0v4.893h4.338v-4.893h-4.338zm4.93 0v4.893h4.527a.296.296 0 0 0 .296-.295v-4.598h-4.824zm-7.673.874c.39 0 .568.248.568.638 0 .78-.78 1.065-.78 1.49v.035h.744v.356h-1.135v-.284c0-.745.78-.852.78-1.597 0-.212-.07-.282-.213-.282-.106 0-.177.07-.177.248v.283h-.39v-.249c0-.39.213-.638.603-.638zm9.752 0c.39 0 .603.248.603.638 0 .638-.46.745-.46 1.206v.142h-.356v-.177c0-.532.425-.567.425-1.206 0-.177-.07-.248-.212-.248-.107 0-.178.071-.178.248v.283h-.39v-.248c0-.39.213-.638.568-.638zm-.212 2.163h.355v.356h-.355v-.356z" color="#000" font-family="sans-serif" font-weight="400" overflow="visible" class="colorfff svgShape"></path></g></svg></g></svg>